<mxfile host="app.diagrams.net" agent="Mozilla/5.0 (Windows NT 10.0; Win64; x64; rv:128.0) Gecko/20100101 Firefox/128.0" version="26.0.7">
  <diagram name="Page-1" id="YCGb1fXZHZs1NDQ-doLa">
    <mxGraphModel dx="2045" dy="670" grid="0" gridSize="10" guides="1" tooltips="1" connect="1" arrows="1" fold="1" page="1" pageScale="1" pageWidth="850" pageHeight="1100" math="0" shadow="0">
      <root>
        <mxCell id="0" />
        <mxCell id="1" parent="0" />
        <mxCell id="F6tcZEU1wLUHKEX0VQhd-23" value="" style="whiteSpace=wrap;html=1;" vertex="1" parent="1">
          <mxGeometry x="299" y="961" width="608" height="126" as="geometry" />
        </mxCell>
        <mxCell id="F6tcZEU1wLUHKEX0VQhd-15" value="" style="rounded=0;whiteSpace=wrap;html=1;" vertex="1" parent="1">
          <mxGeometry x="171" y="561" width="334" height="310" as="geometry" />
        </mxCell>
        <mxCell id="F6tcZEU1wLUHKEX0VQhd-46" style="edgeStyle=orthogonalEdgeStyle;rounded=0;orthogonalLoop=1;jettySize=auto;html=1;exitX=0.548;exitY=0.958;exitDx=0;exitDy=0;exitPerimeter=0;" edge="1" parent="1" source="F6tcZEU1wLUHKEX0VQhd-17" target="F6tcZEU1wLUHKEX0VQhd-45">
          <mxGeometry relative="1" as="geometry">
            <Array as="points">
              <mxPoint x="241" y="845" />
              <mxPoint x="201" y="845" />
            </Array>
          </mxGeometry>
        </mxCell>
        <mxCell id="F6tcZEU1wLUHKEX0VQhd-31" value="" style="rounded=0;whiteSpace=wrap;html=1;" vertex="1" parent="1">
          <mxGeometry x="489" y="353.5" width="482" height="135" as="geometry" />
        </mxCell>
        <mxCell id="F6tcZEU1wLUHKEX0VQhd-19" style="edgeStyle=orthogonalEdgeStyle;rounded=0;orthogonalLoop=1;jettySize=auto;html=1;" edge="1" parent="1" source="F6tcZEU1wLUHKEX0VQhd-15">
          <mxGeometry relative="1" as="geometry">
            <mxPoint x="621.6666666666667" y="716" as="targetPoint" />
          </mxGeometry>
        </mxCell>
        <mxCell id="PQpsgTs7zhuVNot9rBAv-1" value="&lt;font style=&quot;font-size: 18px;&quot;&gt;AI&lt;/font&gt;" style="rounded=1;whiteSpace=wrap;html=1;" parent="1" vertex="1">
          <mxGeometry x="31" y="18" width="120" height="60" as="geometry" />
        </mxCell>
        <mxCell id="iJq4LKLFICn1WwAoMsjc-1" value="&lt;font style=&quot;font-size: 18px;&quot;&gt;DB&lt;/font&gt;" style="rounded=1;whiteSpace=wrap;html=1;" parent="1" vertex="1">
          <mxGeometry x="356" y="18" width="120" height="60" as="geometry" />
        </mxCell>
        <mxCell id="iJq4LKLFICn1WwAoMsjc-2" value="&lt;font style=&quot;font-size: 18px;&quot;&gt;Hosting&lt;/font&gt;" style="rounded=1;whiteSpace=wrap;html=1;" parent="1" vertex="1">
          <mxGeometry x="681" y="18" width="120" height="60" as="geometry" />
        </mxCell>
        <mxCell id="iJq4LKLFICn1WwAoMsjc-3" value="&lt;font style=&quot;font-size: 14px;&quot;&gt;What questions to ask to user?&lt;br&gt;- Location&lt;br&gt;- Date&lt;/font&gt;&lt;div&gt;&lt;font style=&quot;font-size: 14px;&quot;&gt;- Budget&lt;/font&gt;&lt;/div&gt;&lt;div&gt;&lt;font style=&quot;font-size: 14px;&quot;&gt;- Mood / schedule intensity (?)&lt;/font&gt;&lt;/div&gt;&lt;div&gt;&lt;font style=&quot;font-size: 14px;&quot;&gt;- ...&lt;/font&gt;&lt;/div&gt;&lt;div&gt;&lt;font style=&quot;font-size: 14px;&quot;&gt;(Include &quot;not decided yet&quot; and/or&lt;/font&gt;&lt;/div&gt;&lt;div&gt;&lt;font style=&quot;font-size: 14px;&quot;&gt;&quot;do not consider&quot; option for each question)&lt;/font&gt;&lt;/div&gt;&lt;div&gt;&lt;font style=&quot;font-size: 14px;&quot;&gt;&lt;br&gt;&lt;/font&gt;&lt;/div&gt;&lt;div&gt;&lt;span style=&quot;font-size: 14px;&quot;&gt;Receive user input from UI&lt;/span&gt;&lt;/div&gt;&lt;div&gt;&lt;span style=&quot;font-size: 14px;&quot;&gt;Fetch user preference data from DB&lt;/span&gt;&lt;/div&gt;&lt;div&gt;&lt;span style=&quot;font-size: 14px;&quot;&gt;Recommendation: ~~&lt;br&gt;Pass it to UI&lt;/span&gt;&lt;/div&gt;&lt;div&gt;&lt;span style=&quot;font-size: 14px;&quot;&gt;&lt;br&gt;&lt;/span&gt;&lt;/div&gt;" style="text;html=1;align=left;verticalAlign=middle;resizable=0;points=[];autosize=1;strokeColor=none;fillColor=none;rounded=1;" parent="1" vertex="1">
          <mxGeometry x="33.5" y="88" width="290" height="250" as="geometry" />
        </mxCell>
        <mxCell id="iJq4LKLFICn1WwAoMsjc-4" value="&lt;span style=&quot;font-size: 14px;&quot;&gt;User account info &amp;amp; authentication&lt;/span&gt;&lt;div&gt;&lt;span style=&quot;font-size: 14px;&quot;&gt;User preference info&lt;/span&gt;&lt;/div&gt;&lt;div&gt;&lt;span style=&quot;font-size: 14px;&quot;&gt;Most recent chat history&lt;/span&gt;&lt;/div&gt;&lt;div&gt;&lt;span style=&quot;font-size: 14px;&quot;&gt;Saved itineraries&lt;/span&gt;&lt;/div&gt;&lt;div&gt;&lt;span style=&quot;font-size: 14px;&quot;&gt;...&lt;/span&gt;&lt;/div&gt;&lt;div&gt;&lt;span style=&quot;font-size: 14px;&quot;&gt;&lt;br&gt;&lt;/span&gt;&lt;/div&gt;&lt;div&gt;&lt;span style=&quot;font-size: 14px;&quot;&gt;Allow access to data&lt;/span&gt;&lt;/div&gt;&lt;div&gt;&lt;span style=&quot;font-size: 14px;&quot;&gt;Update data&lt;/span&gt;&lt;/div&gt;" style="text;html=1;align=left;verticalAlign=middle;whiteSpace=wrap;rounded=1;" parent="1" vertex="1">
          <mxGeometry x="356" y="98" width="225" height="130" as="geometry" />
        </mxCell>
        <mxCell id="iJq4LKLFICn1WwAoMsjc-5" value="&lt;font style=&quot;font-size: 14px;&quot;&gt;Server setup (?)&lt;/font&gt;&lt;div&gt;&lt;font style=&quot;font-size: 14px;&quot;&gt;Security&lt;/font&gt;&lt;/div&gt;&lt;div&gt;&lt;font style=&quot;font-size: 14px;&quot;&gt;DB management&lt;/font&gt;&lt;/div&gt;&lt;div&gt;&lt;font style=&quot;font-size: 14px;&quot;&gt;Deployment (?)&lt;/font&gt;&lt;/div&gt;&lt;div&gt;&lt;font style=&quot;font-size: 14px;&quot;&gt;Reliability &amp;amp; scalability&lt;/font&gt;&lt;/div&gt;&lt;div&gt;&lt;span style=&quot;font-size: 14px;&quot;&gt;Stable connection&lt;/span&gt;&lt;/div&gt;" style="text;html=1;align=left;verticalAlign=middle;resizable=0;points=[];autosize=1;strokeColor=none;fillColor=none;rounded=1;" parent="1" vertex="1">
          <mxGeometry x="681" y="88" width="160" height="110" as="geometry" />
        </mxCell>
        <mxCell id="iJq4LKLFICn1WwAoMsjc-7" value="&lt;font style=&quot;font-size: 14px;&quot;&gt;+) allowing online / offline access?&lt;/font&gt;" style="text;html=1;align=center;verticalAlign=middle;resizable=0;points=[];autosize=1;strokeColor=none;fillColor=none;rounded=1;" parent="1" vertex="1">
          <mxGeometry x="537" y="295" width="240" height="30" as="geometry" />
        </mxCell>
        <mxCell id="F6tcZEU1wLUHKEX0VQhd-3" style="edgeStyle=orthogonalEdgeStyle;rounded=1;orthogonalLoop=1;jettySize=auto;html=1;exitX=1.015;exitY=0.365;exitDx=0;exitDy=0;exitPerimeter=0;" edge="1" parent="1">
          <mxGeometry relative="1" as="geometry">
            <mxPoint x="171" y="713" as="targetPoint" />
            <mxPoint x="56.67499999999973" y="712.49" as="sourcePoint" />
          </mxGeometry>
        </mxCell>
        <mxCell id="F6tcZEU1wLUHKEX0VQhd-8" value="Frontend" style="text;html=1;align=center;verticalAlign=middle;resizable=0;points=[];autosize=1;strokeColor=none;fillColor=none;" vertex="1" parent="1">
          <mxGeometry x="180" y="565" width="67" height="26" as="geometry" />
        </mxCell>
        <mxCell id="F6tcZEU1wLUHKEX0VQhd-17" value="" style="verticalLabelPosition=bottom;verticalAlign=top;html=1;shadow=0;dashed=0;strokeWidth=1;shape=mxgraph.android.phone2;strokeColor=none;fillStyle=auto;fillColor=light-dark(default, #ffffff);gradientColor=light-dark(#000000,#FFFFFF);gradientDirection=radial;" vertex="1" parent="1">
          <mxGeometry x="184" y="623" width="104" height="186" as="geometry" />
        </mxCell>
        <mxCell id="F6tcZEU1wLUHKEX0VQhd-20" value="" style="whiteSpace=wrap;html=1;" vertex="1" parent="1">
          <mxGeometry x="620" y="558" width="608" height="316" as="geometry" />
        </mxCell>
        <mxCell id="F6tcZEU1wLUHKEX0VQhd-21" value="Backend" style="text;html=1;align=center;verticalAlign=middle;resizable=0;points=[];autosize=1;strokeColor=none;fillColor=none;" vertex="1" parent="1">
          <mxGeometry x="624" y="561" width="66" height="26" as="geometry" />
        </mxCell>
        <mxCell id="F6tcZEU1wLUHKEX0VQhd-22" value="&lt;div&gt;Data Storage&amp;nbsp; (Firebase)&lt;/div&gt;" style="text;html=1;align=center;verticalAlign=middle;resizable=0;points=[];autosize=1;strokeColor=none;fillColor=none;" vertex="1" parent="1">
          <mxGeometry x="299" y="935" width="153" height="26" as="geometry" />
        </mxCell>
        <mxCell id="F6tcZEU1wLUHKEX0VQhd-24" value="User" style="whiteSpace=wrap;html=1;" vertex="1" parent="1">
          <mxGeometry x="-22" y="693" width="78" height="46" as="geometry" />
        </mxCell>
        <mxCell id="F6tcZEU1wLUHKEX0VQhd-27" style="edgeStyle=orthogonalEdgeStyle;rounded=0;orthogonalLoop=1;jettySize=auto;html=1;entryX=0;entryY=0.5;entryDx=0;entryDy=0;dashed=1;exitX=0.361;exitY=0.958;exitDx=0;exitDy=0;exitPerimeter=0;" edge="1" parent="1" source="F6tcZEU1wLUHKEX0VQhd-26" target="F6tcZEU1wLUHKEX0VQhd-23">
          <mxGeometry relative="1" as="geometry">
            <Array as="points">
              <mxPoint x="100" y="716" />
              <mxPoint x="100" y="1064" />
              <mxPoint x="299" y="1064" />
            </Array>
          </mxGeometry>
        </mxCell>
        <mxCell id="F6tcZEU1wLUHKEX0VQhd-26" value="Authentication" style="text;html=1;align=center;verticalAlign=middle;resizable=0;points=[];autosize=1;strokeColor=none;fillColor=none;" vertex="1" parent="1">
          <mxGeometry x="66" y="688" width="95" height="26" as="geometry" />
        </mxCell>
        <mxCell id="F6tcZEU1wLUHKEX0VQhd-28" value="User Account" style="text;html=1;align=center;verticalAlign=middle;resizable=0;points=[];autosize=1;strokeColor=none;fillColor=none;" vertex="1" parent="1">
          <mxGeometry x="104" y="1040" width="91" height="26" as="geometry" />
        </mxCell>
        <mxCell id="F6tcZEU1wLUHKEX0VQhd-30" value="User Interface" style="text;html=1;align=center;verticalAlign=middle;resizable=0;points=[];autosize=1;strokeColor=none;fillColor=none;" vertex="1" parent="1">
          <mxGeometry x="188.5" y="710" width="95" height="26" as="geometry" />
        </mxCell>
        <mxCell id="F6tcZEU1wLUHKEX0VQhd-32" value="External Apis" style="text;html=1;align=center;verticalAlign=middle;resizable=0;points=[];autosize=1;strokeColor=none;fillColor=none;" vertex="1" parent="1">
          <mxGeometry x="495" y="331" width="89" height="26" as="geometry" />
        </mxCell>
        <mxCell id="F6tcZEU1wLUHKEX0VQhd-33" style="edgeStyle=orthogonalEdgeStyle;rounded=0;orthogonalLoop=1;jettySize=auto;html=1;exitX=0.5;exitY=0;exitDx=0;exitDy=0;entryX=0.644;entryY=0.989;entryDx=0;entryDy=0;entryPerimeter=0;" edge="1" parent="1" source="F6tcZEU1wLUHKEX0VQhd-57" target="F6tcZEU1wLUHKEX0VQhd-31">
          <mxGeometry relative="1" as="geometry" />
        </mxCell>
        <mxCell id="F6tcZEU1wLUHKEX0VQhd-34" style="edgeStyle=orthogonalEdgeStyle;rounded=0;orthogonalLoop=1;jettySize=auto;html=1;entryX=0.794;entryY=0.019;entryDx=0;entryDy=0;entryPerimeter=0;" edge="1" parent="1" target="F6tcZEU1wLUHKEX0VQhd-23">
          <mxGeometry relative="1" as="geometry">
            <mxPoint x="782" y="876" as="sourcePoint" />
          </mxGeometry>
        </mxCell>
        <mxCell id="F6tcZEU1wLUHKEX0VQhd-35" value="Google Maps" style="ellipse;whiteSpace=wrap;html=1;" vertex="1" parent="1">
          <mxGeometry x="512" y="382.5" width="80" height="80" as="geometry" />
        </mxCell>
        <mxCell id="F6tcZEU1wLUHKEX0VQhd-36" value="Weather" style="ellipse;whiteSpace=wrap;html=1;" vertex="1" parent="1">
          <mxGeometry x="622" y="382.5" width="80" height="80" as="geometry" />
        </mxCell>
        <mxCell id="F6tcZEU1wLUHKEX0VQhd-37" value="Flights" style="ellipse;whiteSpace=wrap;html=1;" vertex="1" parent="1">
          <mxGeometry x="740" y="382.5" width="80" height="80" as="geometry" />
        </mxCell>
        <mxCell id="F6tcZEU1wLUHKEX0VQhd-39" value="&lt;ul&gt;&lt;li&gt;&lt;font style=&quot;font-size: 15px;&quot;&gt;Login&lt;/font&gt;&lt;/li&gt;&lt;li&gt;&lt;font style=&quot;font-size: 15px;&quot;&gt;AI Assistant Chatbox&lt;br&gt;&lt;/font&gt;&lt;/li&gt;&lt;li&gt;&lt;font style=&quot;font-size: 15px;&quot;&gt;Saved Itineraries&lt;/font&gt;&lt;/li&gt;&lt;li&gt;&lt;font style=&quot;font-size: 15px;&quot;&gt;Settings&lt;/font&gt;&lt;br&gt;&lt;/li&gt;&lt;/ul&gt;" style="text;strokeColor=none;fillColor=none;html=1;whiteSpace=wrap;verticalAlign=middle;overflow=hidden;" vertex="1" parent="1">
          <mxGeometry x="293" y="595" width="193" height="256" as="geometry" />
        </mxCell>
        <mxCell id="F6tcZEU1wLUHKEX0VQhd-48" style="edgeStyle=orthogonalEdgeStyle;rounded=0;orthogonalLoop=1;jettySize=auto;html=1;exitX=0.5;exitY=1;exitDx=0;exitDy=0;entryX=0.5;entryY=1;entryDx=0;entryDy=0;" edge="1" parent="1" source="F6tcZEU1wLUHKEX0VQhd-41" target="F6tcZEU1wLUHKEX0VQhd-44">
          <mxGeometry relative="1" as="geometry" />
        </mxCell>
        <mxCell id="F6tcZEU1wLUHKEX0VQhd-49" style="edgeStyle=orthogonalEdgeStyle;rounded=0;orthogonalLoop=1;jettySize=auto;html=1;exitX=0.5;exitY=1;exitDx=0;exitDy=0;entryX=0.5;entryY=1;entryDx=0;entryDy=0;" edge="1" parent="1" source="F6tcZEU1wLUHKEX0VQhd-41" target="F6tcZEU1wLUHKEX0VQhd-47">
          <mxGeometry relative="1" as="geometry" />
        </mxCell>
        <mxCell id="F6tcZEU1wLUHKEX0VQhd-41" value="Accounts" style="whiteSpace=wrap;html=1;" vertex="1" parent="1">
          <mxGeometry x="321" y="985" width="78" height="68" as="geometry" />
        </mxCell>
        <mxCell id="F6tcZEU1wLUHKEX0VQhd-44" value="Itineries" style="whiteSpace=wrap;html=1;" vertex="1" parent="1">
          <mxGeometry x="429" y="985" width="87" height="69" as="geometry" />
        </mxCell>
        <mxCell id="F6tcZEU1wLUHKEX0VQhd-45" value="Save Itineraries Locally" style="whiteSpace=wrap;html=1;" vertex="1" parent="1">
          <mxGeometry x="141" y="925" width="120" height="60" as="geometry" />
        </mxCell>
        <mxCell id="F6tcZEU1wLUHKEX0VQhd-47" value="Settings" style="whiteSpace=wrap;html=1;" vertex="1" parent="1">
          <mxGeometry x="551" y="987" width="79" height="67" as="geometry" />
        </mxCell>
        <mxCell id="F6tcZEU1wLUHKEX0VQhd-50" value="&lt;div&gt;Django&lt;/div&gt;&lt;div&gt;Request Gateway&lt;br&gt;&lt;/div&gt;" style="text;html=1;align=center;verticalAlign=middle;resizable=0;points=[];autosize=1;strokeColor=none;fillColor=none;" vertex="1" parent="1">
          <mxGeometry x="505" y="675" width="115" height="41" as="geometry" />
        </mxCell>
        <mxCell id="F6tcZEU1wLUHKEX0VQhd-52" value="&lt;div&gt;&lt;br&gt;&lt;/div&gt;&lt;div&gt;- User login&lt;/div&gt;&lt;div&gt;-Registration&lt;br&gt;&lt;/div&gt;" style="rounded=0;whiteSpace=wrap;html=1;" vertex="1" parent="1">
          <mxGeometry x="670.5" y="748" width="246.5" height="94" as="geometry" />
        </mxCell>
        <mxCell id="F6tcZEU1wLUHKEX0VQhd-53" value="What do we want to use for authentication?" style="text;html=1;align=center;verticalAlign=middle;resizable=0;points=[];autosize=1;strokeColor=none;fillColor=none;" vertex="1" parent="1">
          <mxGeometry x="670.5" y="756" width="252" height="26" as="geometry" />
        </mxCell>
        <mxCell id="F6tcZEU1wLUHKEX0VQhd-54" value="Authentication" style="text;html=1;align=center;verticalAlign=middle;resizable=0;points=[];autosize=1;strokeColor=none;fillColor=none;" vertex="1" parent="1">
          <mxGeometry x="668.5" y="726" width="95" height="26" as="geometry" />
        </mxCell>
        <mxCell id="F6tcZEU1wLUHKEX0VQhd-55" value="&lt;div&gt;Itinerary Builder Service&lt;/div&gt;&lt;div&gt;- Optimizes schedules, Routes timing&lt;br&gt;&lt;/div&gt;&lt;div&gt;- Integrate with external APIs&lt;br&gt;&lt;/div&gt;" style="whiteSpace=wrap;html=1;" vertex="1" parent="1">
          <mxGeometry x="985" y="614" width="217" height="81" as="geometry" />
        </mxCell>
        <mxCell id="F6tcZEU1wLUHKEX0VQhd-56" value="&lt;div&gt;Recommendation Service&lt;/div&gt;&lt;div&gt;- Provides Destination suggestions, based on user responses&lt;/div&gt;" style="whiteSpace=wrap;html=1;" vertex="1" parent="1">
          <mxGeometry x="985" y="742" width="211" height="81" as="geometry" />
        </mxCell>
        <mxCell id="F6tcZEU1wLUHKEX0VQhd-57" value="&lt;div&gt;Data Aggregation&lt;/div&gt;&lt;div&gt;- Fetch data from external APIs&lt;br&gt;&lt;/div&gt;" style="whiteSpace=wrap;html=1;" vertex="1" parent="1">
          <mxGeometry x="693" y="602" width="211" height="64" as="geometry" />
        </mxCell>
        <mxCell id="F6tcZEU1wLUHKEX0VQhd-58" value="Google Places" style="ellipse;whiteSpace=wrap;html=1;" vertex="1" parent="1">
          <mxGeometry x="865" y="380" width="80" height="80" as="geometry" />
        </mxCell>
        <mxCell id="F6tcZEU1wLUHKEX0VQhd-59" value="" style="whiteSpace=wrap;html=1;fillColor=none;strokeColor=light-dark(#000000,#0000CC);" vertex="1" parent="1">
          <mxGeometry x="966" y="591" width="249" height="255" as="geometry" />
        </mxCell>
        <mxCell id="F6tcZEU1wLUHKEX0VQhd-60" value="&lt;span style=&quot;color: light-dark(rgb(0, 0, 0), rgb(0, 0, 204));&quot;&gt;AI Layer&lt;br&gt;&lt;/span&gt;" style="text;html=1;align=center;verticalAlign=middle;resizable=0;points=[];autosize=1;strokeColor=none;fillColor=none;" vertex="1" parent="1">
          <mxGeometry x="962" y="565" width="61" height="26" as="geometry" />
        </mxCell>
      </root>
    </mxGraphModel>
  </diagram>
</mxfile>
